<?xml version="1.0" encoding="UTF-8" standalone="no"?>
<!-- Created with Inkscape (http://www.inkscape.org/) -->

<svg
   width="210mm"
   height="297mm"
   viewBox="0 0 210 297"
   version="1.1"
   id="svg312"
   sodipodi:docname="pomme.svg"
   inkscape:version="1.2.1 (9c6d41e410, 2022-07-14)"
   xmlns:inkscape="http://www.inkscape.org/namespaces/inkscape"
   xmlns:sodipodi="http://sodipodi.sourceforge.net/DTD/sodipodi-0.dtd"
   xmlns="http://www.w3.org/2000/svg"
   xmlns:svg="http://www.w3.org/2000/svg"
   xmlns:inkstitch="http://inkstitch.org/namespace">
  <metadata
     id="metadata2066">
    <inkstitch:min_stitch_len_mm>0</inkstitch:min_stitch_len_mm>
    <inkstitch:collapse_len_mm>3</inkstitch:collapse_len_mm>
    <inkstitch:inkstitch_svg_version>1</inkstitch:inkstitch_svg_version>
  </metadata>
  <sodipodi:namedview
     id="namedview314"
     pagecolor="#ffffff"
     bordercolor="#000000"
     borderopacity="0.25"
     inkscape:showpageshadow="2"
     inkscape:pageopacity="0.0"
     inkscape:pagecheckerboard="0"
     inkscape:deskcolor="#d1d1d1"
     inkscape:document-units="mm"
     showgrid="false"
     inkscape:zoom="1.5701481"
     inkscape:cx="162.40506"
     inkscape:cy="270.6751"
     inkscape:window-width="2523"
     inkscape:window-height="1400"
     inkscape:window-x="40"
     inkscape:window-y="50"
     inkscape:window-maximized="0"
     inkscape:current-layer="svg312"
     showguides="false" />
  <defs
     id="defs309">
    <inkscape:path-effect
       id="inkstitch-effect-normal-path1-6-1"
       effect="skeletal"
       is_visible="true"
       lpeversion="1"
       pattern="M 0 0.4 L 0.5 0.4 L 1 0.4M 0 -2.9 L 0.5 -2.9 L 1 -2.9 M 0.5 0.5 L 0.5 -3.1"
       copytype="repeated"
       prop_scale="1"
       scale_y_rel="false"
       spacing="0"
       normal_offset="0"
       tang_offset="0"
       prop_units="false"
       vertical_pattern="false"
       hide_knot="false"
       fuse_tolerance="0.02"
       pattern-nodetypes="cc" />
  </defs>
  <g
     inkscape:groupmode="layer"
     id="layer3"
     inkscape:label="3 bordure zigzag"
     style="display:inline">
    <circle
       style="fill:none;fill-opacity:1;stroke:#0000ff;stroke-width:3.9999;stroke-linecap:round;stroke-linejoin:round;stroke-miterlimit:2.5;stroke-dasharray:none;stroke-dashoffset:0;stroke-opacity:1;paint-order:fill markers stroke"
       id="path30883"
       cx="109.90363"
       cy="43.597153"
       r="25.00005"
       inkstitch:stroke_method="zigzag_stitch" />
  </g>
  <g
     inkscape:groupmode="layer"
     id="layer7"
     inkscape:label="2 motif"
     style="display:inline">
    <g
       inkscape:label="Calque 1"
       inkscape:groupmode="layer"
       id="layer1"
       style="display:inline">
      <g
         id="g2224"
         transform="matrix(0.857478 0 0 0.857478 74.2783 -44.4219)"
         style="display:inline;stroke:none;stroke-opacity:1">
        <g
           id="g382"
           transform="translate(-58.2045, 49.7097)"
           style="stroke:none;stroke-opacity:1">
          <g
             id="g91"
             transform="matrix(0.23987 0 0 -0.23987 108.967 42.9052)"
             style="display:inline;fill:#ff6600;stroke:none;stroke-width:0;stroke-dasharray:none;stroke-opacity:1"
             inkscape:label="g91">
            <path
               d="m -2.3497401,-1.4262185 c -22.2509999,4.395 -32.9075359,-8.0591091 -34.9948399,-6.9932212 -3.832,4.128 -16.395123,9.7899914 -37.544123,5.6119914 C -90.806703,-5.9514483 -108.733,-27.624 -104.439,-54.741 c 4.294,-27.117 19.459744,-50.78116 40.931744,-51.50216 16.665,-0.56 24.295256,-0.22384 26.361256,0.82416 0,0 3.075814,-2.65546 24.547814,-1.93346 21.4719996,0.721 35.846273,25.45051 40.141273,52.56751 4.294,27.117 -11.870672,49.6776896 -27.78867155,52.8216896"
               style="display:inline;fill:#ff6600;fill-opacity:1;fill-rule:nonzero;stroke:none;stroke-width:0;stroke-dasharray:none;stroke-opacity:1"
               id="path93"
               sodipodi:nodetypes="cccsccccc" />
          </g>
          <g
             id="g344"
             transform="matrix(0.679946 0 0 0.679946 -0.915816 -7.05458)"
             style="display:inline;stroke:none;stroke-opacity:1">
            <g
               id="g119"
               transform="matrix(0.352778 0 0 -0.352778 148.473 66.7574)"
               style="display:inline;stroke:none;stroke-opacity:1">
              <path
                 d="m 356.73329,582.95706 2.34459,-9.15373 -5.7331,-1.41554 c -2.02104,3.93993 -1.70894,7.21549 -2.38639,11.31024 l -0.41181,4.25579 c -0.009,1.27961 0.17799,2.63469 0.38726,3.81182 4.66451,0.92313 3.51295,-0.95527 5.79945,-8.80858 z"
                 style="fill:#2c777d;fill-opacity:1;fill-rule:evenodd;stroke:none;stroke-opacity:1"
                 id="path121"
                 sodipodi:nodetypes="ccccccc"
                 transform="matrix(1.50639 0 0 -1.50639 -532.274 862.237)" />
            </g>
            <g
               id="g103"
               transform="matrix(0.352778 0 0 -0.352778 149.93 76.9334)"
               style="display:inline;stroke:none;stroke-opacity:1">
              <path
                 d="m -3.191589,-0.04398658 c 0,0 -34.037394,-7.19368772 -54.474922,32.69768058 0,0 33.30497,9.469462 54.2873584,-31.0128576"
                 style="fill:#2c777d;fill-opacity:1;fill-rule:nonzero;stroke:none;stroke-opacity:1"
                 id="path105"
                 sodipodi:nodetypes="ccc" />
            </g>
          </g>
          <g
             id="g336"
             style="display:inline;stroke:none;stroke-opacity:1"
             transform="matrix(0.985676 0 0 0.985676 -3.65999 -100.275)">
            <g
               id="g115"
               transform="matrix(0.352778 0 0 -0.352778 113.251 155.624)"
               style="display:inline;stroke:none;stroke-opacity:1">
              <path
                 d="m 0,0 c 0,-1.759 -1.426,-3.185 -3.185,-3.185 -1.759,0 -3.185,1.426 -3.185,3.185 0,1.759 1.426,3.185 3.185,3.185 C -1.426,3.185 0,1.759 0,0"
                 style="fill:#2c777d;fill-opacity:1;fill-rule:nonzero;stroke:none;stroke-opacity:1"
                 id="path117" />
            </g>
            <g
               id="g111"
               transform="matrix(0.352778 0 0 -0.352778 100.374 155.624)"
               style="display:inline;stroke:none;stroke-opacity:1">
              <path
                 d="m 0,0 c 0,-1.759 -1.426,-3.185 -3.185,-3.185 -1.759,0 -3.185,1.426 -3.185,3.185 0,1.759 1.426,3.185 3.185,3.185 C -1.426,3.185 0,1.759 0,0"
                 style="fill:#2c777d;fill-opacity:1;fill-rule:nonzero;stroke:none;stroke-opacity:1"
                 id="path113" />
            </g>
            <g
               id="g107"
               transform="matrix(0.352778 0 0 -0.352778 103.764 158.876)"
               style="display:inline;stroke:none;stroke-opacity:1">
              <path
                 style="color:#000000;display:inline;fill:#2c777d;stroke:none;stroke-width:1.00151;stroke-linecap:round;stroke-linejoin:round;stroke-dasharray:none;stroke-opacity:1"
                 d="M 4.6210937,-6.8144531 C 0.88825564,-6.600116 -2.1646724,-3.241325 -1.3671875,0.30664063 A 1.401,1.401 0 0 0 0.30664063,1.3671875 1.401,1.401 0 0 0 1.3671875,-0.30664063 C 1.028812,-1.8120541 2.7029783,-3.8988606 4.78125,-4.0175781 a 1.4011401,1.4011401 0 0 0 0.00195,0 C 6.863281,-4.1370737 8.874281,-2.205165 8.7597625,-0.6875 a 1.401,1.401 0 0 0 1.2910155,1.50195313 1.401,1.401 0 0 0 1.501953,-1.29296876 C 11.826167,-4.1022028 8.3562047,-7.0278054 4.6230469,-6.8144531 Z"
                 id="path109" />
            </g>
          </g>
        </g>
      </g>
    </g>
  </g>
  <g
     inkscape:groupmode="layer"
     id="layer6"
     inkscape:label="1 repere applique"
     style="display:inline;fill:none;stroke:#020201;stroke-width:0.5;stroke-dasharray:none;stroke-opacity:1" />
  <ellipse
     style="fill:none;fill-opacity:1;stroke:#000000;stroke-width:0.1998;stroke-linecap:round;stroke-linejoin:round;stroke-miterlimit:2.5;stroke-dasharray:none;stroke-dashoffset:0;stroke-opacity:1;paint-order:fill markers stroke"
     id="path43222"
     cx="109.90363"
     cy="43.597153"
     rx="24.900099"
     ry="24.900101"
     inkstitch:stroke_method="manual_stitch" />
</svg>
